# xmcd
#
# Track frame offsets: 
#        150
#        22195
#        53293
#        71088
#        84013
#        113268
#        124900
#        143435
#        169350
#        188758
#        207258
#        224410
#        236400
#        253308
#        275020
#        302013
#
# Disc length: 4355 seconds
#
# Revision: 3
# Processed by: cddbd v1.5.2PL0 Copyright (c) Steve Scherf et al.
# Submitted via: ExactAudioCopy v0.90b4
#
DISCID=df110110
DTITLE=Various Artist - Fill Your Head With Blues [CD2]
DYEAR=2001
DGENRE=Blues
TTITLE0=Walter Trout - The Love We Once Knew
TTITLE1=Julian Sas - Blues For The Lost And Found
TTITLE2=Freddie King - Same Old Blues
TTITLE3=Gary Moore (Duet With B.B.King) - Since I Met You Baby
TTITLE4=Cream - Spoonful
TTITLE5=Rob Hoeke Rhythm and Blues Group - Dedicated To Marc Thelonius
TTITLE6=Rory Block - Lovin' Whiskey
TTITLE7=Robben Ford And The Blue Line - I Just Want To Make Love To Yo
TTITLE7=u
TTITLE8=Robert Cray Band - Right Next Door
TTITLE9=Muskee - Brother Booze
TTITLE10=ZZ Top - La Grange
TTITLE11=Bintangs - Ridin' On The L&N
TTITLE12=Flavium - Nightlife
TTITLE13=Q65 - Rambling On My Mind
TTITLE14=Roy Buchanan - Roy's Bluz
TTITLE15=Ten Years After - I Woke Up This Morning
EXTD=
EXTT0=
EXTT1=
EXTT2=
EXTT3=
EXTT4=
EXTT5=
EXTT6=
EXTT7=
EXTT8=
EXTT9=
EXTT10=
EXTT11=
EXTT12=
EXTT13=
EXTT14=
EXTT15=
PLAYORDER=
